<svg xmlns="http://www.w3.org/2000/svg" viewBox="0 0 781.29 307.86"><defs><style>.cls-1,.cls-3{fill:#fff;}.cls-2{fill:#11a64a;}.cls-3{font-size:20px;font-family:OpenSans, Open Sans;}</style></defs><g id="Layer_2" data-name="Layer 2"><g id="Layer_1-2" data-name="Layer 1"><path class="cls-1" d="M414.7,256.6h4.46a7.84,7.84,0,0,0,3.8-.7,6.53,6.53,0,0,0,2.24-3.37l1.72-4.78-16.53-43.4h9.4l9.95,28a24.39,24.39,0,0,1,1.18,5.09h.94a22.63,22.63,0,0,1,1.09-5.09l9.25-28h9.32l-18.18,50.53c-1.25,3.5-2.74,5.91-4.46,7.25s-4.15,2-7.29,2H414.7Z"/><path class="cls-1" d="M348,66.75h40.71v8H356.35V93.86H385.2V102H356.35v19.32h33.52v8.05H348Z"/><path class="cls-1" d="M434.05,129.37h-9.7L397.06,93.51h10ZM415.17,116l-9.53,13.34H397.5l13.77-18.71Zm.78-9.18,8.57-13.34h8.23l-13.86,19.23Z"/><path class="cls-1" d="M463.85,130.24a17.15,17.15,0,0,1-7.84-1.91,14,14,0,0,1-5.76-5.11l.43-2.51v25.9h-8.05V93h7l1.13,9.18-.87-2.59a20.62,20.62,0,0,1,6.58-5.42A18.78,18.78,0,0,1,465.41,92a17.45,17.45,0,0,1,9,2.38,17,17,0,0,1,6.37,6.76,21.36,21.36,0,0,1,2.33,10.18,19.37,19.37,0,0,1-2.51,10,17,17,0,0,1-6.88,6.58A21.06,21.06,0,0,1,463.85,130.24Zm-1.56-6.41a12.66,12.66,0,0,0,6.32-1.6,12.84,12.84,0,0,0,4.64-4.42,11.72,11.72,0,0,0,1.77-6.37,12.63,12.63,0,0,0-1.64-6.45,12.14,12.14,0,0,0-4.38-4.42,11.81,11.81,0,0,0-6.11-1.6,13.22,13.22,0,0,0-5.63,1.17,11.21,11.21,0,0,0-4.15,3.25,12.53,12.53,0,0,0-2.34,4.93v6.07a10.64,10.64,0,0,0,2.08,4.76,11.82,11.82,0,0,0,9.44,4.68Z"/><path class="cls-1" d="M509,130.24a19.24,19.24,0,0,1-9.14-2.17,16,16,0,0,1-6.54-6.36,20.19,20.19,0,0,1-2.43-10.27,20.42,20.42,0,0,1,2.51-10.39,17.46,17.46,0,0,1,6.76-6.67A18.89,18.89,0,0,1,509.41,92a15.32,15.32,0,0,1,8.53,2.29,15.59,15.59,0,0,1,5.24,5.42l-.52,1.3.78-7.54h7.45v35.86h-8V120l.95,2.08a11.32,11.32,0,0,1-1.65,2.21,21.31,21.31,0,0,1-3.07,2.72,17,17,0,0,1-4.38,2.3A16.61,16.61,0,0,1,509,130.24Zm2.16-6.67a12.85,12.85,0,0,0,5.46-1.13,10.63,10.63,0,0,0,4-3.2,12.11,12.11,0,0,0,2.21-4.85v-7a11.2,11.2,0,0,0-2.43-4.55,12.34,12.34,0,0,0-4.16-3A12.82,12.82,0,0,0,511,98.71a11.61,11.61,0,0,0-10.27,5.89,12.73,12.73,0,0,0-1.6,6.5,12.42,12.42,0,0,0,1.65,6.32,12.16,12.16,0,0,0,4.42,4.5A11.43,11.43,0,0,0,511.14,123.57Z"/><path class="cls-1" d="M552.11,93.51l.61,8.75-.26-1.39A13.37,13.37,0,0,1,558,94.51a17.08,17.08,0,0,1,9.1-2.38,11.73,11.73,0,0,1,8.27,3,10.34,10.34,0,0,1,3.34,7.76v26.5h-8.15V105.64a7.27,7.27,0,0,0-1.69-4.72q-1.59-1.86-5-1.86a9.68,9.68,0,0,0-5.58,1.73,11.55,11.55,0,0,0-4,4.76,16.36,16.36,0,0,0-1.43,7v16.8h-8.14V93.51Z"/><path class="cls-1" d="M607.29,130.24a16.9,16.9,0,0,1-15.37-9.14A20.73,20.73,0,0,1,589.53,111a19.68,19.68,0,0,1,2.52-10.22,16.94,16.94,0,0,1,6.75-6.5A20,20,0,0,1,608.33,92a18.8,18.8,0,0,1,8.1,1.82,14.58,14.58,0,0,1,6,5l-.43,2.86V62.33h8.05v67H622v-8.92l1,2.25a20.39,20.39,0,0,1-6.63,5.42A19.15,19.15,0,0,1,607.29,130.24Zm2.51-6.84a12.72,12.72,0,0,0,5.68-1.22,12.54,12.54,0,0,0,4.16-3.24,12.15,12.15,0,0,0,2.38-4.81v-6.85a11.27,11.27,0,0,0-2.47-4.59,12.27,12.27,0,0,0-4.25-3.07,13.56,13.56,0,0,0-5.5-1.08,12,12,0,0,0-6,1.56,11.7,11.7,0,0,0-4.42,4.33,13.18,13.18,0,0,0,0,12.77,12.73,12.73,0,0,0,4.42,4.51A11.31,11.31,0,0,0,609.8,123.4Z"/><path class="cls-1" d="M394,245.14V196.53l2.77.61-19.05,29a5.24,5.24,0,0,1-1.61,1.34,3.6,3.6,0,0,1-3.89,0,5.24,5.24,0,0,1-1.61-1.34l-18.36-28.59,2.08-3.46-.29,51H346V188.56a4.21,4.21,0,0,1,1.34-3.07,4.34,4.34,0,0,1,3.16-1.34,4.8,4.8,0,0,1,2.17.56,4.59,4.59,0,0,1,1.73,1.43l22,33.52-3.72-.17,22.43-33.35a4.16,4.16,0,0,1,3.55-2,4.41,4.41,0,0,1,3.08,1.25,4.18,4.18,0,0,1,1.34,3.16v56.58"/><path class="cls-1" d="M494.83,182.24q9.44,0,14.85,3.86T515.1,198a16.14,16.14,0,0,1-2.25,8.66,15.81,15.81,0,0,1-6.28,5.72,23.9,23.9,0,0,1-9.49,2.42l-1.21-4.42a32,32,0,0,1,11.35,2.25,19.44,19.44,0,0,1,8,5.81,13.82,13.82,0,0,1,2.94,8.83,17.52,17.52,0,0,1-1.69,8,14.61,14.61,0,0,1-4.68,5.45,20.53,20.53,0,0,1-6.67,3.12,29.24,29.24,0,0,1-7.75,1H478.72V182.24Zm1.73,27.37q5.2,0,7.54-2.85a10.6,10.6,0,0,0,2.34-6.93q0-5-3-7.28a13.34,13.34,0,0,0-8.14-2.25h-8.14v19.31Zm.35,27.46a18.5,18.5,0,0,0,6.41-1,9.76,9.76,0,0,0,4.55-3.25,8.66,8.66,0,0,0,1.69-5.41,8,8,0,0,0-1.95-5.72,11,11,0,0,0-5-3,21.56,21.56,0,0,0-6.24-.91h-9.27v19.31Z"/><path class="cls-1" d="M541.69,246.25a11.41,11.41,0,0,1-8.18-3,10.79,10.79,0,0,1-3.34-7.76V209h8.14v23.65a7.94,7.94,0,0,0,1.74,4.72,6.17,6.17,0,0,0,4.85,1.94,8.71,8.71,0,0,0,5.32-1.77,12.74,12.74,0,0,0,3.86-4.85,16,16,0,0,0,1.47-7V209h8.06v35.86h-7.37l-.69-8.84.52,1.65a14.15,14.15,0,0,1-3.2,4.37,15.28,15.28,0,0,1-5,3.08A16.92,16.92,0,0,1,541.69,246.25Z"/><path class="cls-1" d="M587.6,245.56a21.15,21.15,0,0,1-7.41-1.34,14.37,14.37,0,0,1-5.93-4l3.38-4.68a18.11,18.11,0,0,0,4.68,3.25,11,11,0,0,0,4.67,1.08,11.28,11.28,0,0,0,3.21-.43,5,5,0,0,0,2.38-1.47,3.91,3.91,0,0,0,.91-2.69,3.83,3.83,0,0,0-1.26-3.07,10.16,10.16,0,0,0-3.16-1.78c-1.27-.46-2.65-.89-4.16-1.3a15.45,15.45,0,0,1-6.75-4.07,9.11,9.11,0,0,1-2.34-6.32,10.49,10.49,0,0,1,1.43-5.33,11,11,0,0,1,4.29-4.07,13.93,13.93,0,0,1,6.93-1.6,22.51,22.51,0,0,1,6.67.91,16,16,0,0,1,5.54,3.07l-3.2,5a10,10,0,0,0-3.69-2.47,10.72,10.72,0,0,0-3.85-.82,8.52,8.52,0,0,0-2.9.47,5.19,5.19,0,0,0-2.17,1.39,3.27,3.27,0,0,0-.82,2.29,3.41,3.41,0,0,0,1.17,2.91,10,10,0,0,0,3.16,1.77c1.27.46,2.57.93,3.9,1.39a19.54,19.54,0,0,1,4.68,2.07,10.88,10.88,0,0,1,3.33,3.21,8.46,8.46,0,0,1,1.26,4.76,12,12,0,0,1-1.52,5.94,10.77,10.77,0,0,1-4.59,4.33A16.87,16.87,0,0,1,587.6,245.56Z"/><path class="cls-1" d="M612.2,196a4,4,0,0,1,1.52-3.2,5,5,0,0,1,3.33-1.3,4.83,4.83,0,0,1,3.29,1.3,4.12,4.12,0,0,1,1.48,3.2,4.07,4.07,0,0,1-1.48,3.25,4.93,4.93,0,0,1-3.29,1.26,5.09,5.09,0,0,1-3.33-1.26A4,4,0,0,1,612.2,196Zm.52,13h8.14v35.86h-8.14Z"/><path class="cls-1" d="M642.08,209l.61,8.75-.26-1.39A13.35,13.35,0,0,1,648,210a17.2,17.2,0,0,1,9.1-2.38,11.74,11.74,0,0,1,8.27,3,10.32,10.32,0,0,1,3.34,7.75v26.51h-8.14V221.13a7.43,7.43,0,0,0-1.69-4.72,6.23,6.23,0,0,0-5-1.86,9.77,9.77,0,0,0-5.59,1.73,11.64,11.64,0,0,0-4,4.77,16.33,16.33,0,0,0-1.43,7v16.8h-8.14V209Z"/><path class="cls-1" d="M731,245.67a20.94,20.94,0,0,1-7.41-1.35,14.35,14.35,0,0,1-5.93-4l3.38-4.68a18.61,18.61,0,0,0,4.68,3.25,11.12,11.12,0,0,0,7.88.64,4.83,4.83,0,0,0,2.38-1.47,3.89,3.89,0,0,0,.91-2.68,3.84,3.84,0,0,0-1.26-3.08,10,10,0,0,0-3.16-1.77c-1.27-.46-2.65-.9-4.16-1.3a15.45,15.45,0,0,1-6.75-4.07,9.13,9.13,0,0,1-2.34-6.33,10.46,10.46,0,0,1,1.43-5.32,11,11,0,0,1,4.29-4.08,14,14,0,0,1,6.93-1.6,22.84,22.84,0,0,1,6.67.91A16,16,0,0,1,744,211.8l-3.21,5a9.92,9.92,0,0,0-3.68-2.47,10.72,10.72,0,0,0-3.85-.82,8.77,8.77,0,0,0-2.9.47,5.28,5.28,0,0,0-2.17,1.39,3.29,3.29,0,0,0-.82,2.3,3.39,3.39,0,0,0,1.17,2.9,10,10,0,0,0,3.16,1.77c1.27.47,2.57.93,3.9,1.39a18.93,18.93,0,0,1,4.67,2.08,10.89,10.89,0,0,1,3.34,3.2,8.47,8.47,0,0,1,1.26,4.77,12,12,0,0,1-1.52,5.93,10.71,10.71,0,0,1-4.59,4.33A16.9,16.9,0,0,1,731,245.67Z"/><path class="cls-1" d="M765.05,245.56a21.06,21.06,0,0,1-7.4-1.34,14.34,14.34,0,0,1-5.94-4l3.38-4.68a18.11,18.11,0,0,0,4.68,3.25,11.09,11.09,0,0,0,4.68,1.08,11.26,11.26,0,0,0,3.2-.43,4.93,4.93,0,0,0,2.38-1.47,3.91,3.91,0,0,0,.91-2.69,3.86,3.86,0,0,0-1.25-3.07,10.28,10.28,0,0,0-3.16-1.78c-1.27-.46-2.66-.89-4.16-1.3a15.43,15.43,0,0,1-6.76-4.07,9.11,9.11,0,0,1-2.34-6.32,10.49,10.49,0,0,1,1.43-5.33,11.11,11.11,0,0,1,4.29-4.07,14,14,0,0,1,6.93-1.6,22.46,22.46,0,0,1,6.67.91,16,16,0,0,1,5.54,3.07l-3.2,5a10,10,0,0,0-3.68-2.47,10.76,10.76,0,0,0-3.86-.82,8.56,8.56,0,0,0-2.9.47,5.19,5.19,0,0,0-2.17,1.39,3.31,3.31,0,0,0-.82,2.29,3.41,3.41,0,0,0,1.17,2.91,10.06,10.06,0,0,0,3.16,1.77c1.27.46,2.57.93,3.9,1.39a19.54,19.54,0,0,1,4.68,2.07,10.66,10.66,0,0,1,3.33,3.21,8.46,8.46,0,0,1,1.26,4.76,12,12,0,0,1-1.52,5.94,10.77,10.77,0,0,1-4.59,4.33A16.87,16.87,0,0,1,765.05,245.56Z"/><path class="cls-2" d="M255,307.86H52.81A52.82,52.82,0,0,1,0,255.05V52.81A52.81,52.81,0,0,1,52.81,0H255a52.81,52.81,0,0,1,52.81,52.81V255.05A52.81,52.81,0,0,1,255,307.86Z"/><path class="cls-1" d="M92.1,262.34v.05l0,0S92.1,262.37,92.1,262.34Z"/><path class="cls-1" d="M96.55,266.83l43.91,41h36.4l-62.1-58Z"/><path class="cls-1" d="M284.13,152.24c-3,10.35-8.25,19.62-14.34,28.44-2.9,4.15-5.9,8.26-9.1,12.76-.13.18-.26.38-.4.55a54,54,0,0,0-2.66-16.16v0a36.14,36.14,0,0,0-4.95-9.82c-.1-.21-.22-.41-.35-.63l-.29-.2a24.63,24.63,0,0,0-7.75-6.55h0c-.25-.13-.49-.23-.75-.37,0,0,0,0-.05,0a25.2,25.2,0,0,0-7.59-2.25c-12.45-2.6-23.68.38-32.43,4.63-.72.25-1.28.47-1.72.65a89,89,0,0,0-11.63,7.67l-1.87,1.75c-2,1.72-3.21,3-3.48,3.25a.2.2,0,0,1,0,.05l-9.56,8.9q-41.53,38.77-83.05,77.48s0,0,0,0c-9.35,8.74-30.35,28.32-48,44.77a49.4,49.4,0,0,1-24.52-11.05c.24-.23.47-.45.72-.67l.3-.3,53.31-49.81Q42.74,216,11.57,186.71H48l44.35,41.4q35-32.69,70-65.43l.14-.14,2.6-2.41s1.35-1.17,3.78-2.92c.63-.42,1.3-.92,2-1.4l.38-.27c11.05-7.31,35.57-20,62.65-10.83a62.14,62.14,0,0,1,8.45,3.57h-.43a32.07,32.07,0,0,1,3.75,1.79,7.11,7.11,0,0,1,1.06.6.39.39,0,0,1,.14.08c.06.05.13.08.2.13a20.67,20.67,0,0,1,2.36,1.54,40.46,40.46,0,0,1,7.6,7.23l.09.1a57.11,57.11,0,0,1,5.5,8.27c.26.46.53.95.81,1.41.05.09.19.14.5.34a15.63,15.63,0,0,0,.95-1.6c3.85-7.74,7.17-15.64,8.19-24.34,1.11-9.48-1.62-17.36-9.6-23-6.15-4.36-13.17-6.73-20.45-8.25a150.31,150.31,0,0,0-40.77-2.6c-5.65.39-11.27.85-16.9,1.39-1.17.11-1.3-.54-1.53-1.29-1.05-3.08-1.94-6.21-3.2-9.2-5.15-12.18-14.3-20.3-26.17-25.68a98.64,98.64,0,0,0-26.85-7.46A198,198,0,0,0,90.15,66a452.76,452.76,0,0,0-60,6.91Q15,75.58,0,78.86V70Q20.6,63.58,41.73,59c11.67-2.51,23.53-4.26,35.33-6a208.9,208.9,0,0,1,41.29-1.73c15.1.73,29.9,3.25,43.76,9.63,14.62,6.74,26,16.87,32.68,31.75a1.87,1.87,0,0,0,2,1.27c7.35-.07,14.71-.34,22,0,15.58.73,30.92,3,45.05,10.16,9.23,4.72,16.62,11.35,20.25,21.39C287.38,134.36,286.76,143.36,284.13,152.24Z"/><path class="cls-1" d="M134.62,93.94a8,8,0,0,1,0,13.86l-.07,0a15.28,15.28,0,0,1-7.34,1.92,15,15,0,0,1-7.34-1.9l-.3-.17a7.91,7.91,0,0,1,0-13.65l.3-.17a15,15,0,0,1,7.34-1.9,15.28,15.28,0,0,1,7.34,1.92Z"/><path class="cls-1" d="M710.06,238.74a3.51,3.51,0,0,1-1.58,2.76,17.49,17.49,0,0,1-5.38,3.18,19,19,0,0,1-7.17,1.38,21.63,21.63,0,0,1-10.39-2.38,17.14,17.14,0,0,1-6.81-6.56,18.74,18.74,0,0,1-2.42-9.56,20.07,20.07,0,0,1,2.56-10.38,17.94,17.94,0,0,1,6.67-6.62,17.58,17.58,0,0,1,8.73-2.32,17,17,0,0,1,6.71,1.35,18.75,18.75,0,0,1,5.66,3.73,17.6,17.6,0,0,1,5.44,12.59,3,3,0,0,1-1.15,2.27,3.82,3.82,0,0,1-2.52.9H680.35l-1.73-5.86h27.12l-1.37,1.24v-1.73a7.38,7.38,0,0,0-1.73-4.2,11.05,11.05,0,0,0-8.37-3.87,13.11,13.11,0,0,0-4.15.66,9.56,9.56,0,0,0-3.53,2.1,10,10,0,0,0-2.45,3.83,16.8,16.8,0,0,0-.9,5.9,12.79,12.79,0,0,0,1.66,6.62,11.56,11.56,0,0,0,4.47,4.39,12.65,12.65,0,0,0,6.2,1.55,15.06,15.06,0,0,0,4.36-.52,11.54,11.54,0,0,0,2.89-1.28,23.72,23.72,0,0,0,2-1.44"/></g></g></svg>